<?xml version="1.0" encoding="UTF-8" standalone="no"?>
<!-- Created with Inkscape (http://www.inkscape.org/) -->

<svg
   width="1879.1504"
   height="120.78857"
   viewBox="0 0 1879.1504 120.78857"
   version="1.1"
   id="SVGRoot"
   xmlns="http://www.w3.org/2000/svg"
   xmlns:svg="http://www.w3.org/2000/svg">
  <defs
     id="defs9">
    <rect
       x="94.442764"
       y="124.12477"
       width="1897.162"
       height="141.07237"
       id="rect1591" />
  </defs>
  <g
     id="layer1"
     style="display:inline">
    <g
       aria-label="seryibarangma"
       transform="translate(-101.15723,-143.19559)"
       id="use6652"
       mask="none"
       style="font-size:125px;line-height:1.25;letter-spacing:0px;white-space:pre;shape-inside:url(#rect1591);display:inline">
      <path
         d="m 154.44092,218.51297 q 0,9.33838 -7.75147,15.31982 -7.69043,5.98145 -21.05713,5.98145 -7.56836,0 -13.91601,-1.77002 -6.28662,-1.83106 -10.55908,-3.96729 v -12.87841 h 0.61035 q 5.43213,4.08935 12.08496,6.53076 6.65283,2.38037 12.75635,2.38037 7.56836,0 11.84082,-2.44141 4.27246,-2.4414 4.27246,-7.69043 0,-4.02832 -2.31934,-6.10351 -2.31933,-2.0752 -8.91113,-3.54004 -2.44141,-0.54932 -6.40869,-1.28174 -3.90625,-0.73242 -7.14112,-1.58691 -8.97216,-2.38038 -12.75634,-6.95801 -3.72315,-4.63867 -3.72315,-11.35254 0,-4.21143 1.70899,-7.93457 1.77002,-3.72315 5.31006,-6.65283 3.41796,-2.86866 8.66699,-4.5166 5.31006,-1.70899 11.84082,-1.70899 6.10351,0 12.3291,1.52588 6.28662,1.46484 10.43701,3.60107 v 12.26807 h -0.61035 q -4.39453,-3.23486 -10.68115,-5.43213 -6.28662,-2.2583 -12.3291,-2.2583 -6.28663,0 -10.62012,2.44141 -4.3335,2.38037 -4.3335,7.14111 0,4.21143 2.62451,6.34766 2.56348,2.13623 8.30079,3.479 3.17382,0.73242 7.08007,1.46484 3.96729,0.73243 6.5918,1.34278 7.99561,1.83105 12.3291,6.28662 4.3335,4.5166 4.3335,11.96289 z"
         style="font-size:125px;line-height:1.25;letter-spacing:0px;white-space:pre;shape-inside:url(#rect1591);display:inline"
         id="path42637" />
      <path
         d="m 227.92725,205.26834 h -50.23194 q 0,6.28662 1.89209,10.98633 1.89209,4.63867 5.18799,7.62939 3.17383,2.92969 7.50732,4.39453 4.39454,1.46485 9.64356,1.46485 6.95801,0 13.97705,-2.74658 7.08008,-2.80762 10.0708,-5.49317 h 0.61035 v 12.51221 q -5.79834,2.44141 -11.84082,4.08935 -6.04248,1.64795 -12.69531,1.64795 -16.96777,0 -26.48926,-9.15527 -9.52148,-9.21631 -9.52148,-26.12305 0,-16.72363 9.09424,-26.55029 9.15527,-9.82666 24.04785,-9.82666 13.79394,0 21.24023,8.05664 7.50733,8.05664 7.50733,22.88818 z m -11.16944,-8.78906 q -0.061,-9.03321 -4.57763,-13.97705 -4.45557,-4.94385 -13.61084,-4.94385 -9.21631,0 -14.70948,5.43213 -5.43213,5.43213 -6.16455,13.48877 z"
         style="font-size:125px;line-height:1.25;letter-spacing:0px;white-space:pre;shape-inside:url(#rect1591);display:inline"
         id="path42639" />
      <path
         d="m 287.86377,182.50223 h -0.61035 q -2.56348,-0.61035 -5.00488,-0.8545 -2.38038,-0.30517 -5.67627,-0.30517 -5.31006,0 -10.25391,2.38037 -4.94385,2.31934 -9.52149,6.04248 v 48.40088 h -11.4746 v -68.17627 h 11.4746 v 10.0708 q 6.83594,-5.49316 12.02393,-7.75146 5.24902,-2.31934 10.68115,-2.31934 2.99073,0 4.3335,0.18311 1.34277,0.12207 4.02832,0.54931 z"
         style="font-size:125px;line-height:1.25;letter-spacing:0px;white-space:pre;shape-inside:url(#rect1591);display:inline"
         id="path42641" />
      <path
         d="m 357.62695,169.99002 -39.79492,93.32275 h -12.26807 l 12.69532,-28.44238 -27.16065,-64.88037 h 12.45117 l 20.93506,50.53711 21.11817,-50.53711 z"
         style="font-size:125px;line-height:1.25;letter-spacing:0px;white-space:pre;shape-inside:url(#rect1591);display:inline"
         id="path42643" />
      <path
         d="m 384.9707,158.57645 h -12.93945 v -11.90186 h 12.93945 z m -0.73242,79.58984 h -11.47461 v -68.17627 h 11.47461 z"
         style="font-size:125px;line-height:1.25;letter-spacing:0px;white-space:pre;shape-inside:url(#rect1591);display:inline"
         id="path42645" />
      <path
         d="m 466.94092,203.55936 q 0,8.54492 -2.44141,15.38086 -2.38037,6.83593 -6.46972,11.4746 -4.3335,4.82178 -9.52149,7.26319 -5.18799,2.38037 -11.41357,2.38037 -5.79834,0 -10.13184,-1.40381 -4.3335,-1.34277 -8.54492,-3.66211 l -0.73242,3.17383 h -10.74219 v -94.9707 h 11.47461 v 33.93554 q 4.82178,-3.96728 10.2539,-6.46972 5.43213,-2.56348 12.20704,-2.56348 12.08496,0 19.04296,9.27734 7.01905,9.27735 7.01905,26.18409 z m -11.84082,0.30517 q 0,-12.20703 -4.02832,-18.49365 -4.02832,-6.34766 -13.00049,-6.34766 -5.00488,0 -10.13184,2.19727 -5.12695,2.13623 -9.52148,5.5542 v 39.0625 q 4.88281,2.19726 8.36182,3.05176 3.54003,0.85449 7.9956,0.85449 9.52148,0 14.89258,-6.22559 5.43213,-6.28662 5.43213,-19.65332 z"
         style="font-size:125px;line-height:1.25;letter-spacing:0px;white-space:pre;shape-inside:url(#rect1591);display:inline"
         id="path42647" />
      <path
         d="m 537.80273,238.16629 h -11.41357 v -7.26318 q -1.52588,1.03759 -4.15039,2.92968 -2.56348,1.83106 -5.00488,2.92969 -2.86866,1.40381 -6.5918,2.31934 -3.72314,0.97656 -8.72803,0.97656 -9.21631,0 -15.625,-6.10352 -6.40869,-6.10351 -6.40869,-15.56396 0,-7.75147 3.2959,-12.51221 3.35693,-4.82178 9.52148,-7.56836 6.22559,-2.74658 14.95362,-3.72314 8.72802,-0.97656 18.73779,-1.46485 v -1.77002 q 0,-3.90625 -1.40381,-6.46972 -1.34277,-2.56348 -3.90625,-4.02832 -2.4414,-1.40381 -5.85937,-1.89209 -3.41797,-0.48828 -7.14112,-0.48828 -4.5166,0 -10.0708,1.2207 -5.5542,1.15967 -11.47461,3.41797 h -0.61035 v -11.65772 q 3.35694,-0.91552 9.70459,-2.01416 6.34766,-1.09863 12.51221,-1.09863 7.20215,0 12.51221,1.2207 5.37109,1.15967 9.27734,4.02832 3.84521,2.80762 5.85937,7.26319 2.01416,4.45556 2.01416,11.04736 z m -11.41357,-16.78467 v -18.98193 q -5.24902,0.30517 -12.39014,0.91553 -7.08007,0.61035 -11.23047,1.77001 -4.94384,1.40381 -7.9956,4.39454 -3.05176,2.92968 -3.05176,8.11767 0,5.85938 3.54004,8.8501 3.54004,2.92969 10.80322,2.92969 6.04248,0 11.04737,-2.31934 5.00488,-2.38037 9.27734,-5.67627 z"
         style="font-size:125px;line-height:1.25;letter-spacing:0px;white-space:pre;shape-inside:url(#rect1591);display:inline"
         id="path42649" />
      <path
         d="m 602.43896,182.50223 h -0.61035 q -2.56347,-0.61035 -5.00488,-0.8545 -2.38037,-0.30517 -5.67627,-0.30517 -5.31006,0 -10.25391,2.38037 -4.94384,2.31934 -9.52148,6.04248 v 48.40088 h -11.47461 v -68.17627 h 11.47461 v 10.0708 q 6.83594,-5.49316 12.02393,-7.75146 5.24902,-2.31934 10.68115,-2.31934 2.99072,0 4.33349,0.18311 1.34278,0.12207 4.02832,0.54931 z"
         style="font-size:125px;line-height:1.25;letter-spacing:0px;white-space:pre;shape-inside:url(#rect1591);display:inline"
         id="path42651" />
      <path
         d="m 664.02344,238.16629 h -11.41358 v -7.26318 q -1.52588,1.03759 -4.15039,2.92968 -2.56347,1.83106 -5.00488,2.92969 -2.86865,1.40381 -6.5918,2.31934 -3.72314,0.97656 -8.72802,0.97656 -9.21631,0 -15.625,-6.10352 -6.4087,-6.10351 -6.4087,-15.56396 0,-7.75147 3.2959,-12.51221 3.35694,-4.82178 9.52149,-7.56836 6.22558,-2.74658 14.95361,-3.72314 8.72803,-0.97656 18.73779,-1.46485 v -1.77002 q 0,-3.90625 -1.40381,-6.46972 -1.34277,-2.56348 -3.90625,-4.02832 -2.4414,-1.40381 -5.85937,-1.89209 -3.41797,-0.48828 -7.14111,-0.48828 -4.51661,0 -10.0708,1.2207 -5.5542,1.15967 -11.47461,3.41797 h -0.61036 v -11.65772 q 3.35694,-0.91552 9.70459,-2.01416 6.34766,-1.09863 12.51221,-1.09863 7.20215,0 12.51221,1.2207 5.37109,1.15967 9.27734,4.02832 3.84522,2.80762 5.85938,7.26319 2.01416,4.45556 2.01416,11.04736 z m -11.41358,-16.78467 v -18.98193 q -5.24902,0.30517 -12.39013,0.91553 -7.08008,0.61035 -11.23047,1.77001 -4.94385,1.40381 -7.99561,4.39454 -3.05176,2.92968 -3.05176,8.11767 0,5.85938 3.54004,8.8501 3.54004,2.92969 10.80323,2.92969 6.04248,0 11.04736,-2.31934 5.00488,-2.38037 9.27734,-5.67627 z"
         style="font-size:125px;line-height:1.25;letter-spacing:0px;white-space:pre;shape-inside:url(#rect1591);display:inline"
         id="path42653" />
      <path
         d="m 743.125,238.16629 h -11.47461 v -38.81836 q 0,-4.69971 -0.54932,-8.78906 -0.54931,-4.15039 -2.01416,-6.46973 -1.52587,-2.56348 -4.39453,-3.78418 -2.86865,-1.28174 -7.44629,-1.28174 -4.6997,0 -9.82666,2.31934 -5.12695,2.31934 -9.82666,5.92041 v 50.90332 h -11.47461 v -68.17627 h 11.47461 v 7.56836 q 5.3711,-4.45557 11.1084,-6.95801 5.73731,-2.50244 11.77979,-2.50244 11.04736,0 16.8457,6.65283 5.79834,6.65283 5.79834,19.16504 z"
         style="font-size:125px;line-height:1.25;letter-spacing:0px;white-space:pre;shape-inside:url(#rect1591);display:inline"
         id="path42655" />
      <path
         d="m 864.70703,238.16629 h -11.47461 v -38.81836 q 0,-4.39453 -0.42724,-8.48389 -0.36622,-4.08935 -1.64795,-6.53076 -1.40381,-2.62451 -4.02832,-3.96728 -2.62452,-1.34278 -7.56836,-1.34278 -4.82178,0 -9.64356,2.44141 -4.82178,2.38037 -9.64355,6.10352 0.1831,1.4038 0.30517,3.29589 0.12207,1.83106 0.12207,3.66211 v 43.64014 h -11.47461 v -38.81836 q 0,-4.5166 -0.42724,-8.54492 -0.36621,-4.08936 -1.64795,-6.53076 -1.40381,-2.62452 -4.02832,-3.90625 -2.62451,-1.34278 -7.56836,-1.34278 -4.69971,0 -9.46045,2.31934 -4.69971,2.31934 -9.39941,5.92041 v 50.90332 h -11.47461 v -68.17627 h 11.47461 v 7.56836 q 5.37109,-4.45557 10.68115,-6.95801 5.37109,-2.50244 11.41357,-2.50244 6.95801,0 11.77979,2.92969 4.88281,2.92969 7.26318,8.11767 6.95801,-5.85937 12.69531,-8.42285 5.73731,-2.62451 12.26807,-2.62451 11.23047,0 16.54053,6.83594 5.37109,6.7749 5.37109,18.98193 z"
         style="font-size:125px;line-height:1.25;letter-spacing:0px;white-space:pre;shape-inside:url(#rect1591);display:inline"
         id="path42657" />
      <path
         d="m 899.13086,158.57645 h -12.93945 v -11.90186 h 12.93945 z m -0.73242,79.58984 h -11.47461 v -68.17627 h 11.47461 z"
         style="font-size:125px;line-height:1.25;letter-spacing:0px;white-space:pre;shape-inside:url(#rect1591);display:inline"
         id="path42659" />
      <path
         d="m 978.11035,238.16629 h -11.47461 v -38.81836 q 0,-4.69971 -0.54931,-8.78906 -0.54932,-4.15039 -2.01416,-6.46973 -1.52588,-2.56348 -4.39454,-3.78418 -2.86865,-1.28174 -7.44628,-1.28174 -4.69971,0 -9.82666,2.31934 -5.12696,2.31934 -9.82667,5.92041 v 50.90332 h -11.4746 v -68.17627 h 11.4746 v 7.56836 q 5.3711,-4.45557 11.1084,-6.95801 5.73731,-2.50244 11.77979,-2.50244 11.04736,0 16.8457,6.65283 5.79834,6.65283 5.79834,19.16504 z"
         style="font-size:125px;line-height:1.25;letter-spacing:0px;white-space:pre;shape-inside:url(#rect1591);display:inline"
         id="path42661" />
      <path
         d="m 1057.2729,205.26834 h -50.2319 q 0,6.28662 1.8921,10.98633 1.8921,4.63867 5.188,7.62939 3.1738,2.92969 7.5073,4.39453 4.3945,1.46485 9.6436,1.46485 6.958,0 13.977,-2.74658 7.0801,-2.80762 10.0708,-5.49317 h 0.6104 v 12.51221 q -5.7984,2.44141 -11.8408,4.08935 -6.0425,1.64795 -12.6954,1.64795 -16.9677,0 -26.4892,-9.15527 -9.5215,-9.21631 -9.5215,-26.12305 0,-16.72363 9.0942,-26.55029 9.1553,-9.82666 24.0479,-9.82666 13.7939,0 21.2402,8.05664 7.5073,8.05664 7.5073,22.88818 z m -11.1694,-8.78906 q -0.061,-9.03321 -4.5776,-13.97705 -4.4556,-4.94385 -13.6109,-4.94385 -9.2163,0 -14.7094,5.43213 -5.4322,5.43213 -6.1646,13.48877 z"
         style="font-size:125px;line-height:1.25;letter-spacing:0px;white-space:pre;shape-inside:url(#rect1591);display:inline"
         id="path42663" />
      <path
         d="m 1134.6655,203.25418 q 0,8.30078 -2.3803,15.19775 -2.3804,6.83594 -6.7139,11.59668 -4.0283,4.51661 -9.5215,7.01905 -5.4321,2.4414 -11.5356,2.4414 -5.3101,0 -9.6436,-1.15966 -4.2725,-1.15967 -8.728,-3.60108 v 28.56445 h -11.4746 v -93.32275 h 11.4746 v 7.14111 q 4.5776,-3.84521 10.2539,-6.40869 5.7373,-2.62451 12.207,-2.62451 12.3291,0 19.1651,9.33838 6.8969,9.27734 6.8969,25.81787 z m -11.8408,0.30518 q 0,-12.32911 -4.2114,-18.43262 -4.2114,-6.10352 -12.9395,-6.10352 -4.9438,0 -9.9487,2.13623 -5.0049,2.13623 -9.5825,5.61524 v 38.63525 q 4.8828,2.19727 8.3618,2.99072 3.54,0.79346 7.9956,0.79346 9.5825,0 14.9536,-6.46972 5.3711,-6.46973 5.3711,-19.16504 z"
         style="font-size:125px;line-height:1.25;letter-spacing:0px;white-space:pre;shape-inside:url(#rect1591);display:inline"
         id="path42665" />
      <path
         d="m 1211.2036,169.99002 -39.7949,93.32275 h -12.2681 l 12.6953,-28.44238 -27.1606,-64.88037 h 12.4512 l 20.935,50.53711 21.1182,-50.53711 z"
         style="font-size:125px;line-height:1.25;letter-spacing:0px;white-space:pre;shape-inside:url(#rect1591);display:inline"
         id="path42667" />
      <path
         d="m 1329.0625,197.69998 q 0,8.48389 -2.5024,16.41846 -2.4414,7.93457 -7.0191,14.46533 h -26.8555 l -1.6479,-7.08008 q -4.5166,3.66211 -8.667,5.61524 -4.1504,1.95312 -9.5215,1.95312 -10.2539,0 -16.4184,-7.75146 -6.1036,-7.75147 -6.1036,-21.66748 0,-13.85498 7.5074,-22.09473 7.5073,-8.23975 17.9443,-8.23975 4.4556,0 7.8735,1.0376 3.418,0.97656 7.3853,2.99072 v -2.92968 h 9.7046 v 51.3916 h 14.8315 q 2.5635,-4.57764 3.8452,-11.41358 1.3428,-6.89697 1.3428,-12.3291 0,-10.00976 -2.8076,-18.18847 -2.7466,-8.17872 -8.1177,-14.03809 -5.3711,-5.85938 -13.3056,-8.97217 -7.9346,-3.17383 -18.0054,-3.17383 -9.7656,0 -17.8833,3.54004 -8.0567,3.54004 -13.855,9.52149 -5.8594,5.98144 -9.2163,14.34326 -3.2959,8.30078 -3.2959,17.70019 0,10.0708 3.1738,18.43262 3.1739,8.30078 8.9722,14.22119 6.0425,6.16455 14.1602,9.27735 8.1176,3.17382 17.7002,3.17382 5.249,0 10.8032,-0.67138 5.6152,-0.67139 10.7422,-2.13623 v 8.66699 q -5.9204,1.28174 -11.0474,1.70898 -5.127,0.48828 -10.5591,0.48828 -11.3525,0 -21.0571,-3.90625 -9.7046,-3.84521 -16.6626,-10.80322 -7.0191,-7.01904 -10.9253,-16.8457 -3.9063,-9.82666 -3.9063,-21.72852 0,-11.2915 4.0894,-20.99609 4.0894,-9.76563 11.1694,-16.90674 7.0801,-7.14111 16.7847,-11.23047 9.7046,-4.08935 20.752,-4.08935 11.9628,0 21.3623,3.78418 9.3994,3.78418 15.8691,10.62011 6.4697,6.83594 9.8877,16.4795 3.479,9.58252 3.479,21.3623 z m -38.147,15.56397 v -31.61622 q -3.8452,-1.77001 -6.8969,-2.50244 -3.0518,-0.79345 -6.5308,-0.79345 -7.8735,0 -12.3291,5.49316 -4.4556,5.49316 -4.4556,15.625 0,9.94873 3.5401,15.07568 3.54,5.06592 11.0473,5.06592 4.0894,0 8.1787,-1.89209 4.0894,-1.89209 7.4463,-4.45556 z"
         style="font-size:125px;line-height:1.25;letter-spacing:0px;white-space:pre;shape-inside:url(#rect1591);display:inline"
         id="path42669" />
      <path
         d="m 1406.5161,230.41482 q 0,17.33399 -7.8735,25.45166 -7.8736,8.11768 -24.231,8.11768 -5.4321,0 -10.6201,-0.79346 -5.1269,-0.73242 -10.1318,-2.13623 v -11.71875 h 0.6103 q 2.8076,1.09864 8.9112,2.68555 6.1035,1.64795 12.207,1.64795 5.8594,0 9.7046,-1.40381 3.8452,-1.40381 5.9814,-3.90625 2.1362,-2.38037 3.0518,-5.7373 0.9155,-3.35694 0.9155,-7.50733 v -6.22558 q -5.188,4.15039 -9.9487,6.22558 -4.6997,2.01416 -12.024,2.01416 -12.207,0 -19.4091,-8.78906 -7.1411,-8.8501 -7.1411,-24.90234 0,-8.78907 2.4414,-15.13672 2.5024,-6.40869 6.7749,-11.04737 3.9672,-4.33349 9.6435,-6.71386 5.6763,-2.44141 11.2915,-2.44141 5.9204,0 9.8877,1.2207 4.0283,1.15967 8.4839,3.60108 l 0.7324,-2.92969 h 10.7422 z m -11.4746,-10.98632 v -37.17041 q -4.5776,-2.0752 -8.5449,-2.92969 -3.9063,-0.91553 -7.8125,-0.91553 -9.4605,0 -14.8926,6.34766 -5.4321,6.34765 -5.4321,18.43262 0,11.4746 4.0283,17.39501 4.0283,5.92041 13.3667,5.92041 5.0049,0 10.0098,-1.89209 5.0659,-1.95312 9.2773,-5.18798 z"
         style="font-size:125px;line-height:1.25;letter-spacing:0px;white-space:pre;shape-inside:url(#rect1591);display:inline"
         id="path42671" />
      <path
         d="m 1528.5864,238.16629 h -11.4746 v -38.81836 q 0,-4.39453 -0.4272,-8.48389 -0.3662,-4.08935 -1.648,-6.53076 -1.4038,-2.62451 -4.0283,-3.96728 -2.6245,-1.34278 -7.5684,-1.34278 -4.8217,0 -9.6435,2.44141 -4.8218,2.38037 -9.6436,6.10352 0.1831,1.4038 0.3052,3.29589 0.1221,1.83106 0.1221,3.66211 v 43.64014 h -11.4746 v -38.81836 q 0,-4.5166 -0.4273,-8.54492 -0.3662,-4.08936 -1.6479,-6.53076 -1.4038,-2.62452 -4.0283,-3.90625 -2.6246,-1.34278 -7.5684,-1.34278 -4.6997,0 -9.4605,2.31934 -4.6997,2.31934 -9.3994,5.92041 v 50.90332 h -11.4746 v -68.17627 h 11.4746 v 7.56836 q 5.3711,-4.45557 10.6812,-6.95801 5.3711,-2.50244 11.4136,-2.50244 6.958,0 11.7797,2.92969 4.8829,2.92969 7.2632,8.11767 6.958,-5.85937 12.6953,-8.42285 5.7373,-2.62451 12.2681,-2.62451 11.2305,0 16.5405,6.83594 5.3711,6.7749 5.3711,18.98193 z"
         style="font-size:125px;line-height:1.25;letter-spacing:0px;white-space:pre;shape-inside:url(#rect1591);display:inline"
         id="path42673" />
      <path
         d="m 1603.6597,238.16629 h -11.4136 v -7.26318 q -1.5259,1.03759 -4.1504,2.92968 -2.5635,1.83106 -5.0049,2.92969 -2.8686,1.40381 -6.5918,2.31934 -3.7231,0.97656 -8.728,0.97656 -9.2163,0 -15.625,-6.10352 -6.4087,-6.10351 -6.4087,-15.56396 0,-7.75147 3.2959,-12.51221 3.3569,-4.82178 9.5215,-7.56836 6.2256,-2.74658 14.9536,-3.72314 8.728,-0.97656 18.7378,-1.46485 v -1.77002 q 0,-3.90625 -1.4038,-6.46972 -1.3428,-2.56348 -3.9063,-4.02832 -2.4414,-1.40381 -5.8593,-1.89209 -3.418,-0.48828 -7.1412,-0.48828 -4.5166,0 -10.0708,1.2207 -5.5542,1.15967 -11.4746,3.41797 h -0.6103 v -11.65772 q 3.3569,-0.91552 9.7046,-2.01416 6.3476,-1.09863 12.5122,-1.09863 7.2021,0 12.5122,1.2207 5.3711,1.15967 9.2773,4.02832 3.8452,2.80762 5.8594,7.26319 2.0142,4.45556 2.0142,11.04736 z m -11.4136,-16.78467 v -18.98193 q -5.249,0.30517 -12.3901,0.91553 -7.0801,0.61035 -11.2305,1.77001 -4.9439,1.40381 -7.9956,4.39454 -3.0518,2.92968 -3.0518,8.11767 0,5.85938 3.5401,8.8501 3.54,2.92969 10.8032,2.92969 6.0425,0 11.0474,-2.31934 5.0048,-2.38037 9.2773,-5.67627 z"
         style="font-size:125px;line-height:1.25;letter-spacing:0px;white-space:pre;shape-inside:url(#rect1591);display:inline"
         id="path42675" />
      <path
         d="m 1638.0835,158.57645 h -12.9395 v -11.90186 h 12.9395 z m -0.7324,79.58984 h -11.4746 v -68.17627 h 11.4746 z"
         style="font-size:125px;line-height:1.25;letter-spacing:0px;white-space:pre;shape-inside:url(#rect1591);display:inline"
         id="path42677" />
      <path
         d="m 1671.6528,238.16629 h -11.4746 v -94.9707 h 11.4746 z"
         style="font-size:125px;line-height:1.25;letter-spacing:0px;white-space:pre;shape-inside:url(#rect1591);display:inline"
         id="path42679" />
      <path
         d="m 1713.0957,238.16629 h -14.5874 v -17.39502 h 14.5874 z"
         style="font-size:125px;line-height:1.25;letter-spacing:0px;white-space:pre;shape-inside:url(#rect1591);display:inline"
         id="path42681" />
      <path
         d="m 1790.2441,233.89383 q -5.7373,2.74658 -10.9253,4.27246 -5.1269,1.52588 -10.9252,1.52588 -7.3853,0 -13.5498,-2.13623 -6.1646,-2.19727 -10.5591,-6.5918 -4.4556,-4.39453 -6.897,-11.1084 -2.4414,-6.71386 -2.4414,-15.68603 0,-16.72364 9.1553,-26.24512 9.2163,-9.52148 24.292,-9.52148 5.8593,0 11.4746,1.64795 5.6762,1.64794 10.3759,4.02832 v 12.75634 h -0.6103 q -5.249,-4.08935 -10.8643,-6.28662 -5.5542,-2.19726 -10.8642,-2.19726 -9.7657,0 -15.4419,6.59179 -5.6153,6.53077 -5.6153,19.22608 0,12.3291 5.4932,18.98193 5.5542,6.5918 15.564,6.5918 3.479,0 7.0801,-0.91553 3.601,-0.91553 6.4697,-2.38037 2.5024,-1.28174 4.6997,-2.68555 2.1973,-1.46484 3.479,-2.50244 h 0.6103 z"
         style="font-size:125px;line-height:1.25;letter-spacing:0px;white-space:pre;shape-inside:url(#rect1591);display:inline"
         id="path42683" />
      <path
         d="m 1863.0591,204.10867 q 0,16.6626 -8.5449,26.30615 -8.545,9.64356 -22.8882,9.64356 -14.4654,0 -23.0103,-9.64356 -8.4839,-9.64355 -8.4839,-26.30615 0,-16.6626 8.4839,-26.30615 8.5449,-9.70459 23.0103,-9.70459 14.3432,0 22.8882,9.70459 8.5449,9.64355 8.5449,26.30615 z m -11.8408,0 q 0,-13.24463 -5.188,-19.65332 -5.188,-6.46972 -14.4043,-6.46972 -9.3384,0 -14.5264,6.46972 -5.1269,6.40869 -5.1269,19.65332 0,12.81739 5.1879,19.47022 5.188,6.59179 14.4654,6.59179 9.1553,0 14.3432,-6.53076 5.2491,-6.59179 5.2491,-19.53125 z"
         style="font-size:125px;line-height:1.25;letter-spacing:0px;white-space:pre;shape-inside:url(#rect1591);display:inline"
         id="path42685" />
      <path
         d="m 1980.3076,238.16629 h -11.4746 v -38.81836 q 0,-4.39453 -0.4272,-8.48389 -0.3662,-4.08935 -1.648,-6.53076 -1.4038,-2.62451 -4.0283,-3.96728 -2.6245,-1.34278 -7.5684,-1.34278 -4.8217,0 -9.6435,2.44141 -4.8218,2.38037 -9.6436,6.10352 0.1831,1.4038 0.3052,3.29589 0.1221,1.83106 0.1221,3.66211 v 43.64014 h -11.4746 v -38.81836 q 0,-4.5166 -0.4273,-8.54492 -0.3662,-4.08936 -1.6479,-6.53076 -1.4038,-2.62452 -4.0284,-3.90625 -2.6245,-1.34278 -7.5683,-1.34278 -4.6997,0 -9.4605,2.31934 -4.6997,2.31934 -9.3994,5.92041 v 50.90332 h -11.4746 v -68.17627 h 11.4746 v 7.56836 q 5.3711,-4.45557 10.6812,-6.95801 5.3711,-2.50244 11.4135,-2.50244 6.9581,0 11.7798,2.92969 4.8828,2.92969 7.2632,8.11767 6.958,-5.85937 12.6953,-8.42285 5.7373,-2.62451 12.2681,-2.62451 11.2305,0 16.5405,6.83594 5.3711,6.7749 5.3711,18.98193 z"
         style="font-size:125px;line-height:1.25;letter-spacing:0px;white-space:pre;shape-inside:url(#rect1591);display:inline"
         id="path42687" />
    </g>
  </g>
</svg>
